<?xml version="1.0" encoding="iso-8859-1"?>
<!-- Generator: Adobe Illustrator 19.0.0, SVG Export Plug-In . SVG Version: 6.00 Build 0)  -->
<svg version="1.1" id="Layer_1" xmlns="http://www.w3.org/2000/svg" xmlns:xlink="http://www.w3.org/1999/xlink" x="0px" y="0px"
	 viewBox="0 0 511.997 511.997" style="enable-background:new 0 0 511.997 511.997;" xml:space="preserve">
<path style="fill:#AC92EB;" d="M408.497,286.997l-25.499-2.5l-43.999,17l-40.5,61.499l-104.5-0.5l-34-58.999l-43.5-19h-38.5
	l-8.5,62.155l132.5,150.344h79.5l135.498-160.999C416.997,335.997,409.997,288.997,408.497,286.997z"/>
<polygon style="fill:#5D9CEC;" points="177.499,172.998 209.499,496.996 276.999,494.496 318.999,175.998 257.999,93.343 
	211.999,114.671 "/>
<path d="M501.341,26.656c-5.906,0-10.688,4.78-10.688,10.687c0,5.875,4.781,10.656,10.688,10.656
	c5.875,0,10.656-4.781,10.656-10.656C511.997,31.436,507.216,26.656,501.341,26.656z"/>
<path d="M458.653,410.652c-5.875,0-10.656,4.781-10.656,10.688c0,5.875,4.781,10.656,10.656,10.656
	c5.906,0,10.688-4.781,10.688-10.656C469.341,415.434,464.56,410.652,458.653,410.652z"/>
<path d="M287.999,26.656c5.891,0,10.656-4.766,10.656-10.656S293.89,5.344,287.999,5.344S277.343,10.11,277.343,16
	S282.108,26.656,287.999,26.656z"/>
<path d="M74.665,175.998c5.891,0,10.672-4.781,10.672-10.656c0-5.906-4.781-10.687-10.672-10.687s-10.664,4.78-10.664,10.687
	C64,171.217,68.774,175.998,74.665,175.998z"/>
<path d="M10.665,346.652c-5.891,0-10.664,4.781-10.664,10.688c0,5.875,4.773,10.656,10.664,10.656s10.672-4.781,10.672-10.656
	C21.337,351.434,16.556,346.652,10.665,346.652z"/>
<path d="M32,37.343V26.656C32,20.781,27.227,16,21.336,16s-10.672,4.781-10.672,10.656v10.687C4.773,37.343,0,42.109,0,47.999
	s4.773,10.656,10.664,10.656v10.688c0,5.875,4.781,10.656,10.672,10.656S32,75.218,32,69.343V58.655
	c5.891,0,10.664-4.766,10.664-10.656S37.891,37.343,32,37.343z"/>
<path d="M437.341,165.342v-10.687c0-5.875-4.781-10.656-10.688-10.656c-5.875,0-10.656,4.781-10.656,10.656v10.687
	c-5.891,0-10.656,4.766-10.656,10.656s4.766,10.656,10.656,10.656v10.688c0,5.875,4.781,10.656,10.656,10.656
	c5.906,0,10.688-4.781,10.688-10.656v-10.688c5.875,0,10.656-4.766,10.656-10.656S443.216,165.342,437.341,165.342z"/>
<path d="M431.138,344.59c0-0.047-0.016-0.094-0.016-0.125c0-0.188-0.031-0.375-0.047-0.562c-0.016-0.031-0.016-0.047-0.016-0.062
	l-7.797-60.233c0,0-0.016-0.047-0.016-0.078c-0.016-0.125-0.047-0.266-0.062-0.406c-0.031-0.188-0.062-0.375-0.125-0.562
	c-0.031-0.125-0.062-0.281-0.094-0.406c-0.062-0.188-0.109-0.359-0.156-0.531c-0.062-0.156-0.109-0.281-0.156-0.438
	c-0.062-0.156-0.125-0.312-0.203-0.469c-0.062-0.156-0.141-0.297-0.203-0.438c-0.062-0.156-0.156-0.312-0.234-0.453
	s-0.156-0.266-0.234-0.406c-0.094-0.155-0.188-0.296-0.297-0.452c-0.078-0.125-0.172-0.25-0.25-0.375
	c-0.141-0.156-0.281-0.344-0.422-0.5c-0.062-0.094-0.125-0.172-0.203-0.25c-0.234-0.25-0.453-0.484-0.703-0.719
	c-0.016,0-0.031-0.016-0.031-0.031c-0.062-0.047-0.125-0.094-0.188-0.141c-0.172-0.172-0.359-0.312-0.562-0.453
	c-0.094-0.094-0.219-0.156-0.312-0.25c-0.156-0.109-0.328-0.219-0.5-0.312c-0.125-0.094-0.25-0.156-0.375-0.234
	c-0.156-0.078-0.312-0.172-0.469-0.25s-0.281-0.141-0.422-0.203c-0.172-0.062-0.328-0.125-0.484-0.203
	c-0.156-0.047-0.281-0.109-0.438-0.156c-0.172-0.062-0.344-0.109-0.531-0.172c-0.141-0.031-0.266-0.062-0.406-0.109
	c-0.234-0.047-0.484-0.109-0.719-0.141c-0.156-0.031-0.281-0.047-0.406-0.062c-0.266-0.031-0.516-0.062-0.781-0.078h-0.062l0,0
	l-31.905-1.797c-1.594-0.094-3.172,0.188-4.656,0.781l-46.562,19.124c-0.25,0.109-0.484,0.219-0.719,0.344
	c-0.078,0.031-0.156,0.062-0.219,0.109c-0.188,0.109-0.375,0.203-0.562,0.328c-0.094,0.062-0.188,0.125-0.281,0.188
	c-0.156,0.094-0.312,0.188-0.469,0.312c-0.094,0.062-0.188,0.125-0.281,0.219c-0.156,0.125-0.328,0.25-0.484,0.406
	c-0.078,0.062-0.156,0.125-0.234,0.188c-0.188,0.188-0.375,0.375-0.562,0.578c-0.062,0.078-0.141,0.172-0.219,0.25
	c-0.125,0.156-0.25,0.312-0.375,0.484c-0.062,0.078-0.125,0.156-0.188,0.25c-0.188,0.234-0.344,0.5-0.5,0.75l0,0l-13.344,22.375
	l18.906-141.812c0,0,0.016-0.031,0.016-0.062c0.047-0.328,0.078-0.656,0.078-1c0-0.062,0-0.125,0-0.219c0-0.281,0-0.594-0.031-0.906
	c0-0.031,0-0.078,0-0.125c-0.031-0.328-0.062-0.656-0.125-0.969c-0.031-0.094-0.031-0.156-0.047-0.234
	c-0.078-0.328-0.141-0.641-0.234-0.953v-0.016c-0.109-0.328-0.219-0.641-0.344-0.953c-0.031-0.062-0.062-0.156-0.094-0.219
	c-0.125-0.312-0.281-0.609-0.438-0.906c-0.016,0-0.031-0.031-0.031-0.031c-0.156-0.281-0.328-0.562-0.5-0.812
	c-0.062-0.078-0.094-0.156-0.156-0.219c-0.031-0.062-0.078-0.125-0.125-0.188l-64-85.327c-0.016-0.016-0.039-0.047-0.055-0.078
	c-0.094-0.125-0.195-0.234-0.297-0.344c-0.117-0.156-0.234-0.281-0.359-0.422c-0.094-0.109-0.203-0.203-0.305-0.312
	c-0.133-0.141-0.266-0.266-0.406-0.391c-0.109-0.094-0.219-0.188-0.336-0.281c-0.141-0.125-0.289-0.234-0.438-0.344
	c-0.117-0.094-0.242-0.188-0.375-0.25c-0.141-0.109-0.289-0.203-0.438-0.297c-0.141-0.078-0.281-0.172-0.422-0.234
	c-0.148-0.094-0.297-0.156-0.445-0.234s-0.297-0.141-0.453-0.203s-0.312-0.125-0.477-0.188c-0.148-0.062-0.297-0.125-0.453-0.156
	c-0.188-0.062-0.375-0.125-0.562-0.172c-0.133-0.031-0.258-0.078-0.398-0.109c-0.312-0.062-0.633-0.125-0.953-0.156
	c-0.016,0-0.023,0-0.039,0l0,0c-0.336-0.062-0.672-0.078-1.008-0.094c-0.141,0-0.281,0-0.414,0c-0.195,0-0.391,0.016-0.586,0.031
	c-0.164,0-0.336,0.031-0.5,0.047c-0.156,0.016-0.32,0.031-0.477,0.047c-0.18,0.031-0.359,0.062-0.539,0.109
	c-0.141,0.031-0.281,0.062-0.43,0.109c-0.18,0.031-0.359,0.094-0.539,0.156c-0.133,0.031-0.273,0.078-0.406,0.125
	c-0.18,0.062-0.359,0.125-0.531,0.203c-0.133,0.047-0.258,0.109-0.391,0.172c-0.172,0.094-0.344,0.172-0.516,0.25
	c-0.047,0.031-0.094,0.062-0.141,0.078l-42.671,23.578c-1.438,0.812-2.68,1.922-3.617,3.281l-42.664,61.749
	c-0.18,0.266-0.344,0.531-0.5,0.812c-0.039,0.062-0.078,0.125-0.117,0.203c-0.156,0.297-0.305,0.594-0.438,0.891c0,0,0,0,0,0.016
	c-0.133,0.297-0.242,0.625-0.344,0.953c-0.016,0.062-0.039,0.125-0.062,0.203c-0.094,0.328-0.172,0.641-0.234,0.969
	c-0.008,0.047-0.016,0.078-0.023,0.109c-0.055,0.312-0.094,0.609-0.117,0.906c-0.008,0.062-0.016,0.141-0.023,0.219
	c-0.023,0.312-0.031,0.656-0.023,0.969c0,0.062,0,0.125,0.008,0.203c0.008,0.312,0.031,0.625,0.07,0.938
	c0.008,0.031,0.008,0.047,0.008,0.078l0.016,0.094l0,0l18.883,141.671l-13.297-22.328c-0.156-0.25-0.328-0.516-0.508-0.766
	c-0.062-0.078-0.117-0.156-0.18-0.234c-0.125-0.156-0.258-0.328-0.398-0.5c-0.062-0.062-0.133-0.156-0.203-0.219
	c-0.188-0.219-0.383-0.406-0.586-0.609c-0.062-0.047-0.133-0.109-0.195-0.172c-0.164-0.141-0.328-0.281-0.5-0.406
	c-0.094-0.094-0.188-0.156-0.281-0.219c-0.148-0.125-0.305-0.219-0.461-0.312c-0.094-0.062-0.195-0.125-0.289-0.188
	c-0.188-0.125-0.375-0.219-0.57-0.328c-0.07-0.047-0.133-0.078-0.203-0.109c-0.242-0.125-0.484-0.234-0.734-0.344l-46.562-19.124
	c-1.477-0.594-3.062-0.875-4.656-0.781l-31.96,1.797c-0.281,0.016-0.555,0.047-0.836,0.078c-0.094,0.031-0.195,0.031-0.297,0.062
	c-0.258,0.031-0.523,0.094-0.781,0.156c-0.125,0.031-0.258,0.062-0.383,0.094c-0.188,0.062-0.375,0.109-0.555,0.172
	c-0.141,0.047-0.281,0.109-0.414,0.156c-0.172,0.078-0.336,0.141-0.5,0.203c-0.141,0.062-0.273,0.125-0.414,0.203
	c-0.156,0.078-0.32,0.172-0.469,0.25c-0.133,0.078-0.258,0.141-0.391,0.234c-0.164,0.094-0.32,0.203-0.484,0.312
	c-0.109,0.094-0.219,0.156-0.328,0.25c-0.195,0.141-0.375,0.281-0.562,0.453c-0.055,0.047-0.117,0.094-0.172,0.141
	c-0.016,0.016-0.023,0.031-0.039,0.031c-0.242,0.234-0.477,0.469-0.703,0.719c-0.07,0.078-0.133,0.156-0.203,0.25
	c-0.141,0.156-0.281,0.344-0.422,0.5c-0.086,0.125-0.164,0.25-0.25,0.375c-0.102,0.156-0.203,0.297-0.297,0.452
	c-0.078,0.141-0.156,0.266-0.234,0.406s-0.164,0.297-0.234,0.453c-0.07,0.141-0.141,0.281-0.203,0.438
	c-0.07,0.156-0.133,0.312-0.195,0.469c-0.055,0.156-0.109,0.281-0.156,0.438c-0.055,0.172-0.102,0.344-0.148,0.531
	c-0.039,0.125-0.086,0.281-0.117,0.406c-0.039,0.188-0.07,0.375-0.109,0.562c-0.023,0.141-0.055,0.281-0.07,0.406
	c0,0.031-0.008,0.062-0.008,0.062l-7.812,60.249c0,0.016,0,0.031-0.008,0.062c-0.016,0.188-0.039,0.375-0.047,0.562
	c-0.008,0.031-0.008,0.078-0.016,0.125c-0.008,0.219-0.016,0.438-0.016,0.672c0,0.078,0.008,0.141,0.008,0.203
	c0,0.156,0.008,0.312,0.016,0.469c0.008,0.094,0.016,0.188,0.023,0.266c0.016,0.141,0.031,0.266,0.047,0.422
	c0.016,0.094,0.031,0.172,0.039,0.266c0.023,0.141,0.047,0.266,0.07,0.391c0.023,0.094,0.039,0.188,0.062,0.281
	c0.031,0.125,0.062,0.266,0.102,0.406c0.016,0.062,0.039,0.156,0.062,0.234c0.047,0.156,0.094,0.312,0.148,0.453
	c0.023,0.062,0.039,0.125,0.055,0.188c0.078,0.203,0.164,0.406,0.25,0.625c0.016,0.031,0.039,0.062,0.055,0.109
	c0.07,0.172,0.148,0.328,0.234,0.484c0.031,0.078,0.07,0.141,0.109,0.219c0.07,0.125,0.141,0.25,0.211,0.375
	c0.047,0.078,0.094,0.156,0.141,0.219c0.07,0.125,0.148,0.234,0.227,0.344c0.055,0.078,0.102,0.156,0.156,0.234
	c0.078,0.109,0.164,0.203,0.242,0.328c0.062,0.062,0.117,0.141,0.18,0.219c0.086,0.094,0.172,0.188,0.266,0.297
	c0.062,0.078,0.117,0.141,0.18,0.203c0.016,0.031,0.031,0.031,0.047,0.062L205.602,503.34c0.25,0.25,0.508,0.5,0.789,0.75
	c0.062,0.031,0.125,0.094,0.188,0.156c0.203,0.156,0.406,0.312,0.617,0.469c0.102,0.062,0.203,0.125,0.312,0.188
	c0.18,0.125,0.367,0.25,0.555,0.344c0.117,0.062,0.227,0.125,0.344,0.188c0.195,0.125,0.391,0.219,0.586,0.281
	c0.117,0.062,0.227,0.125,0.344,0.156c0.211,0.094,0.43,0.156,0.648,0.25c0.102,0.031,0.203,0.062,0.305,0.094
	c0.242,0.062,0.492,0.125,0.734,0.188c0.086,0.031,0.172,0.031,0.258,0.062c0.281,0.062,0.562,0.094,0.844,0.125
	c0.062,0,0.117,0.031,0.18,0.031c0.344,0.031,0.688,0.031,1.039,0.031h64.007l0,0l0,0c0.062,0,0.141,0,0.219,0
	c0.25,0,0.531,0,0.797-0.031c0.172-0.031,0.328-0.062,0.5-0.062c0.172-0.031,0.328-0.062,0.484-0.094
	c0.203-0.031,0.406-0.094,0.594-0.125c0.125-0.031,0.25-0.062,0.375-0.094c0.219-0.062,0.422-0.156,0.641-0.219
	c0.078-0.031,0.172-0.062,0.266-0.094c0.234-0.094,0.469-0.188,0.688-0.312c0.062-0.031,0.125-0.062,0.188-0.094
	c0.25-0.094,0.469-0.25,0.719-0.375c0.031-0.031,0.047-0.031,0.078-0.062c0.797-0.469,1.531-1.062,2.203-1.75L428.227,352.56
	c0.031-0.031,0.031-0.031,0.062-0.062c0.062-0.062,0.109-0.125,0.156-0.188c0.109-0.109,0.203-0.219,0.281-0.328
	c0.062-0.062,0.125-0.141,0.172-0.203c0.078-0.109,0.172-0.219,0.25-0.344c0.047-0.062,0.109-0.125,0.156-0.219
	c0.078-0.109,0.156-0.219,0.234-0.344c0.031-0.062,0.094-0.141,0.125-0.219c0.078-0.125,0.156-0.25,0.219-0.406
	c0.031-0.062,0.078-0.125,0.109-0.188c0.078-0.156,0.172-0.344,0.25-0.5c0.016-0.031,0.016-0.062,0.047-0.094
	c0.078-0.219,0.156-0.422,0.25-0.625c0-0.062,0.031-0.109,0.031-0.156c0.062-0.156,0.125-0.312,0.156-0.484
	c0.031-0.078,0.062-0.156,0.062-0.234c0.047-0.141,0.094-0.281,0.125-0.406c0-0.094,0.031-0.188,0.047-0.281
	c0.016-0.125,0.047-0.25,0.078-0.406c0-0.078,0.016-0.156,0.031-0.25c0.016-0.156,0.031-0.281,0.047-0.422
	c0.016-0.078,0.016-0.172,0.016-0.266c0.016-0.156,0.031-0.312,0.031-0.469c0-0.062,0-0.125,0-0.203
	C431.153,345.027,431.153,344.809,431.138,344.59z M85.625,309.169l10.328,11.328l-9.929,4.938l-2.68,1.328L85.625,309.169z
	 M99.234,342.684l10.641-5.28l88.476,126.937l0.055,0.438L87.875,348.34L99.234,342.684z M182.851,186.654h51.812V485.34h-11.992
	L182.851,186.654z M255.999,186.654h51.812l-39.82,298.686h-11.992V186.654z M292.311,464.34l88.499-126.937l10.641,5.28
	l11.359,5.656l-110.561,116.47L292.311,464.34z M405.622,325.903l-10.89-5.406l10.327-11.328l2.281,17.594L405.622,325.903z
	 M382.529,293.966l7.156,0.406l-14.812,16.25l-14.891-7.406L382.529,293.966z M338.265,316.247l23.233,11.562l-63.03,90.405
	l6.031-45.297L338.265,316.247z M257.413,165.342l5.898-47.155l35.344,47.155H257.413z M220.687,122.374l22.125-12.234
	l-6.898,55.202h-44.915L220.687,122.374z M192.203,418.215l-63.015-90.405l23.242-11.562l33.726,56.624L192.203,418.215z
	 M130.703,303.216l-14.883,7.406L101,294.372l7.156-0.406L130.703,303.216z"/>
<g>
</g>
<g>
</g>
<g>
</g>
<g>
</g>
<g>
</g>
<g>
</g>
<g>
</g>
<g>
</g>
<g>
</g>
<g>
</g>
<g>
</g>
<g>
</g>
<g>
</g>
<g>
</g>
<g>
</g>
</svg>
