<?xml version="1.0" encoding="iso-8859-1"?>
<!-- Generator: Adobe Illustrator 19.0.0, SVG Export Plug-In . SVG Version: 6.00 Build 0)  -->
<svg version="1.1" id="Layer_1" xmlns="http://www.w3.org/2000/svg" xmlns:xlink="http://www.w3.org/1999/xlink" x="0px" y="0px"
	 viewBox="0 0 512 512" style="enable-background:new 0 0 512 512;" xml:space="preserve">
<path style="fill:#314E55;" d="M432.552,35.31c-18.565,0-33.664,14.445-35.043,32.666c-31.094,7.216-57.794,20.156-80.519,36.335
	c-14.143,4.16-26.406,14.098-33.034,28.152c-7.809,7.849-15.039,15.974-21.615,24.238c-9.626-39.035-15.736-75.458-11.065-92.589
	c1.28-4.698-1.491-9.552-6.194-10.836c-4.72-1.302-9.556,1.491-10.84,6.198c-6.359,23.312,2.518,70.41,14.416,115.748
	c-0.824,1.201-1.583,2.396-2.384,3.596c-18.143-44.053-55.537-98.386-132.328-136.095c0.515-2.395,0.814-4.868,0.814-7.414
	c0-19.474-15.84-35.31-35.31-35.31s-35.31,15.836-35.31,35.31s15.84,35.31,35.31,35.31c10.592,0,19.998-4.783,26.475-12.192
	c23.699,11.602,43.532,24.772,60.021,38.834c-27.254,1.691-70.045,41.752-74.935,46.419c-1.746,1.664-2.733,3.974-2.733,6.388
	s0.987,4.724,2.733,6.388c4.996,4.767,49.586,46.578,76.715,46.578c25.025,0,46.001-17.462,51.508-40.83
	c6.546,11.901,11.659,23.675,15.586,34.95c-25.774,44.198-35.725,82.358-35.934,83.19c-0.181,0.722-0.099,1.426-0.098,2.138H88.276
	c-4.875,0-8.828,3.948-8.828,8.828v35.31c0,4.879,3.953,8.828,8.828,8.828h27.32l15.89,158.897H97.103V512h44.138h211.862h44.276
	v-17.655h-34.521l15.89-158.897h27.321c4.875,0,8.828-3.948,8.828-8.828v-35.31c0-4.879-3.953-8.828-8.828-8.828H300.057
	c0.001-0.991-0.082-1.997-0.436-2.983c-7.803-21.738-20.86-61.214-31.67-101.137c3.634-5.004,7.517-9.983,11.602-14.916
	c0.774,4.781,2.177,9.49,4.28,14.002c5.978,12.819,16.591,22.543,29.888,27.379c4.086,1.491,8.957,2.121,14.293,2.121
	c27.935,0,68.414-17.319,73.724-19.646c2.211-0.966,3.927-2.802,4.75-5.069c0.828-2.267,0.69-4.767-0.384-6.931
	c-3.06-6.19-30.66-60.733-56.155-70.009c-0.277-0.101-0.56-0.162-0.838-0.258c15.483-8.432,32.609-15.186,51.469-19.654
	c5.609,12.095,17.787,20.55,31.972,20.55c19.47,0,35.31-15.836,35.31-35.31S452.022,35.31,432.552,35.31z M241.699,220.986
	c6.898,29.583,6.36,52.888,5.803,61.496h-30.9C218.652,275.278,226.249,250.694,241.699,220.986z M281.938,282.483h-16.776
	c0.62-12.265,0.627-44.188-11.387-82.832c0.364-0.596,0.731-1.192,1.102-1.79C265.932,236.576,277.702,270.536,281.938,282.483z"/>
<path style="fill:#E65F58;" d="M79.448,52.966c-9.737,0-17.655-7.922-17.655-17.655s7.918-17.655,17.655-17.655
	s17.655,7.922,17.655,17.655S89.185,52.966,79.448,52.966z"/>
<path style="fill:#5ECB66;" d="M167.724,185.379c-13.272,0-39.815-19.612-57.565-35.31c17.737-15.707,44.272-35.31,57.565-35.31
	c19.47,0,35.31,15.836,35.31,35.31S187.194,185.379,167.724,185.379z"/>
<g>
	<polygon style="fill:#D26CBA;" points="345.116,494.345 149.228,494.345 133.34,335.448 361.004,335.448 	"/>
	<polygon style="fill:#D26CBA;" points="397.241,317.793 370.759,317.793 123.586,317.793 97.103,317.793 97.103,300.138 
		397.241,300.138 	"/>
</g>
<path style="fill:#5ECB66;" d="M331.871,119.75c4,0,8.069,0.69,12.043,2.129c12.47,4.543,30.703,32.043,42.009,52.871
	c-22.047,8.681-53.694,18.017-66.168,13.491c-8.862-3.224-15.935-9.707-19.922-18.259c-3.987-8.552-4.405-18.138-1.177-27
	c0.087-0.239,0.22-0.447,0.312-0.684c7.84-7.644,16.339-14.932,25.531-21.67C326.912,120.11,329.366,119.75,331.871,119.75z"/>
<path style="fill:#E65F58;" d="M432.552,88.276c-9.737,0-17.655-7.922-17.655-17.655s7.918-17.655,17.655-17.655
	s17.655,7.922,17.655,17.655S442.289,88.276,432.552,88.276z"/>
<g>
</g>
<g>
</g>
<g>
</g>
<g>
</g>
<g>
</g>
<g>
</g>
<g>
</g>
<g>
</g>
<g>
</g>
<g>
</g>
<g>
</g>
<g>
</g>
<g>
</g>
<g>
</g>
<g>
</g>
</svg>
