<svg id="visual" viewBox="0 0 900 600" width="900" height="600" xmlns="http://www.w3.org/2000/svg" xmlns:xlink="http://www.w3.org/1999/xlink" version="1.1"><rect x="0" y="0" width="900" height="600" fill="#ffffff"></rect><g transform="translate(469.6423831618662 315.41181516016775)"><path d="M123.7 -175.1C136 -137.1 105 -75.1 111.2 -22.2C117.4 30.6 160.9 74.3 162.4 114.6C164 154.8 123.5 191.6 85 184.1C46.5 176.7 9.9 125 -47.2 111.9C-104.4 98.9 -182.1 124.4 -198.3 108.6C-214.6 92.7 -169.3 35.4 -136.4 -2C-103.5 -39.4 -82.9 -56.8 -62.2 -93.4C-41.6 -129.9 -20.8 -185.4 17.5 -206.2C55.7 -227.1 111.4 -213.1 123.7 -175.1" fill="#33658A"></path></g></svg>