<svg id="visual" viewBox="0 0 900 600" width="900" height="600" xmlns="http://www.w3.org/2000/svg" xmlns:xlink="http://www.w3.org/1999/xlink" version="1.1"><rect x="0" y="0" width="900" height="600" fill="#ffffff"></rect><g transform="translate(503.6573240223606 266.0656952587153)"><path d="M114 -133.6C128.6 -123.6 108.1 -69.5 101.8 -29.3C95.4 11 103.1 37.5 103.7 81.8C104.2 126 97.6 188 70.6 200.6C43.7 213.3 -3.6 176.7 -62.1 160C-120.6 143.3 -190.2 146.7 -215.2 117.4C-240.2 88.2 -220.5 26.4 -186 -9.1C-151.5 -44.6 -102.1 -53.7 -68.6 -60.3C-35.1 -66.9 -17.6 -70.9 16.1 -90.1C49.7 -109.2 99.4 -143.5 114 -133.6" fill="#33658A"></path></g></svg>