<svg id="visual" viewBox="0 0 900 600" width="900" height="600" xmlns="http://www.w3.org/2000/svg" xmlns:xlink="http://www.w3.org/1999/xlink" version="1.1"><rect x="0" y="0" width="900" height="600" fill="#ffffff"></rect><g transform="translate(410.334077570012 304.27852220351417)"><path d="M66.4 -73.9C100.8 -50.4 153.3 -43.3 188.6 -8.8C223.8 25.8 241.8 87.9 215.7 116.3C189.5 144.8 119.2 139.6 63.1 149.7C7.1 159.7 -34.8 185.1 -61.8 173.6C-88.9 162.2 -101.2 113.8 -110.6 74.8C-119.9 35.9 -126.4 6.2 -136.1 -38.8C-145.8 -83.8 -158.7 -144.2 -136.6 -169.8C-114.4 -195.4 -57.2 -186.2 -20.6 -161.7C16.1 -137.2 32.1 -97.3 66.4 -73.9" fill="#33658A"></path></g></svg>