<svg id="visual" viewBox="0 0 900 600" width="900" height="600" xmlns="http://www.w3.org/2000/svg" xmlns:xlink="http://www.w3.org/1999/xlink" version="1.1"><rect x="0" y="0" width="900" height="600" fill="#ffffff"></rect><g transform="translate(483.0775594943497 340.04619012049415)"><path d="M106 -150C131.4 -105 142 -65.9 161.3 -19.2C180.6 27.6 208.5 82 192.2 111.7C176 141.4 115.5 146.4 66.6 149.8C17.7 153.2 -19.7 155 -69.7 153.4C-119.8 151.8 -182.4 146.6 -222.2 111.8C-261.9 77 -278.7 12.4 -245.8 -20.7C-213 -53.9 -130.6 -55.7 -81.4 -96.5C-32.1 -137.3 -16.1 -217.2 12.1 -231.6C40.3 -246 80.6 -195 106 -150" fill="#33658A"></path></g></svg>