<svg id="visual" viewBox="0 0 900 600" width="900" height="600" xmlns="http://www.w3.org/2000/svg" xmlns:xlink="http://www.w3.org/1999/xlink" version="1.1"><rect x="0" y="0" width="900" height="600" fill="#ffffff"></rect><g transform="translate(405.6926615398283 291.0187016995354)"><path d="M168.3 -170.5C210.1 -165.4 230.6 -104.8 242.3 -42.2C254 20.5 256.9 85.2 228.4 129.3C199.9 173.3 140 196.6 91.2 186.5C42.5 176.3 5 132.8 -22.5 104.3C-50 75.8 -67.4 62.4 -95.5 41.6C-123.5 20.9 -162.2 -7.3 -162.1 -32.2C-162 -57.1 -123.1 -78.7 -89.6 -85.3C-56.1 -91.9 -28.1 -83.5 17.6 -104.4C63.2 -125.3 126.4 -175.7 168.3 -170.5" fill="#F26419"></path></g></svg>